<svg width="117" height="22" viewBox="0 0 117 22" fill="none" xmlns="http://www.w3.org/2000/svg">
<g clip-path="url(#clip0_17387_211)">
<path d="M29.7188 4.52344H31.5547L37.3516 13.8203V4.52344H38.8281V16H37.0859L31.2031 6.71094V16H29.7188V4.52344ZM44.5781 7.44531C45.1719 7.44531 45.7474 7.58594 46.3047 7.86719C46.862 8.14323 47.2865 8.5026 47.5781 8.94531C47.8594 9.36719 48.0469 9.85938 48.1406 10.4219C48.224 10.8073 48.2656 11.4219 48.2656 12.2656H42.1328C42.1589 13.1146 42.3594 13.7969 42.7344 14.3125C43.1094 14.8229 43.6901 15.0781 44.4766 15.0781C45.2109 15.0781 45.7969 14.8359 46.2344 14.3516C46.4844 14.0703 46.6615 13.7448 46.7656 13.375H48.1484C48.112 13.6823 47.9896 14.026 47.7812 14.4062C47.5781 14.7812 47.349 15.0885 47.0938 15.3281C46.6667 15.7448 46.138 16.026 45.5078 16.1719C45.1693 16.2552 44.7865 16.2969 44.3594 16.2969C43.3177 16.2969 42.4349 15.9193 41.7109 15.1641C40.987 14.4036 40.625 13.3411 40.625 11.9766C40.625 10.6328 40.9896 9.54167 41.7188 8.70312C42.4479 7.86458 43.401 7.44531 44.5781 7.44531ZM46.8203 11.1484C46.763 10.5391 46.6302 10.0521 46.4219 9.6875C46.0365 9.01042 45.3932 8.67188 44.4922 8.67188C43.8464 8.67188 43.3047 8.90625 42.8672 9.375C42.4297 9.83854 42.1979 10.4297 42.1719 11.1484H46.8203ZM53.4844 7.44531C54.0781 7.44531 54.6536 7.58594 55.2109 7.86719C55.7682 8.14323 56.1927 8.5026 56.4844 8.94531C56.7656 9.36719 56.9531 9.85938 57.0469 10.4219C57.1302 10.8073 57.1719 11.4219 57.1719 12.2656H51.0391C51.0651 13.1146 51.2656 13.7969 51.6406 14.3125C52.0156 14.8229 52.5964 15.0781 53.3828 15.0781C54.1172 15.0781 54.7031 14.8359 55.1406 14.3516C55.3906 14.0703 55.5677 13.7448 55.6719 13.375H57.0547C57.0182 13.6823 56.8958 14.026 56.6875 14.4062C56.4844 14.7812 56.2552 15.0885 56 15.3281C55.5729 15.7448 55.0443 16.026 54.4141 16.1719C54.0755 16.2552 53.6927 16.2969 53.2656 16.2969C52.224 16.2969 51.3411 15.9193 50.6172 15.1641C49.8932 14.4036 49.5312 13.3411 49.5312 11.9766C49.5312 10.6328 49.8958 9.54167 50.625 8.70312C51.3542 7.86458 52.3073 7.44531 53.4844 7.44531ZM55.7266 11.1484C55.6693 10.5391 55.5365 10.0521 55.3281 9.6875C54.9427 9.01042 54.2995 8.67188 53.3984 8.67188C52.7526 8.67188 52.2109 8.90625 51.7734 9.375C51.3359 9.83854 51.1042 10.4297 51.0781 11.1484H55.7266ZM59.7969 11.9141C59.7969 12.8099 59.987 13.5599 60.3672 14.1641C60.7474 14.7682 61.3568 15.0703 62.1953 15.0703C62.8464 15.0703 63.3802 14.7917 63.7969 14.2344C64.2188 13.6719 64.4297 12.8672 64.4297 11.8203C64.4297 10.763 64.2135 9.98177 63.7812 9.47656C63.349 8.96615 62.8151 8.71094 62.1797 8.71094C61.4714 8.71094 60.8958 8.98177 60.4531 9.52344C60.0156 10.0651 59.7969 10.862 59.7969 11.9141ZM61.9141 7.48438C62.5547 7.48438 63.0911 7.61979 63.5234 7.89062C63.7734 8.04688 64.0573 8.32031 64.375 8.71094V4.48438H65.7266V16H64.4609V14.8359C64.1328 15.3516 63.7448 15.724 63.2969 15.9531C62.849 16.1823 62.3359 16.2969 61.7578 16.2969C60.8255 16.2969 60.0182 15.9062 59.3359 15.125C58.6536 14.3385 58.3125 13.2943 58.3125 11.9922C58.3125 10.7734 58.6224 9.71875 59.2422 8.82812C59.8672 7.93229 60.7578 7.48438 61.9141 7.48438ZM72.6172 6.35938C72.638 5.77604 72.7396 5.34896 72.9219 5.07812C73.25 4.59896 73.8828 4.35938 74.8203 4.35938C74.9089 4.35938 75 4.36198 75.0938 4.36719C75.1875 4.3724 75.2943 4.38021 75.4141 4.39062V5.67188C75.2682 5.66146 75.1615 5.65625 75.0938 5.65625C75.0312 5.65104 74.9714 5.64844 74.9141 5.64844C74.487 5.64844 74.2318 5.76042 74.1484 5.98438C74.0651 6.20312 74.0234 6.76562 74.0234 7.67188H75.4141V8.78125H74.0078V16H72.6172V8.78125H71.4531V7.67188H72.6172V6.35938ZM80.0391 15.0938C80.9714 15.0938 81.6094 14.7422 81.9531 14.0391C82.3021 13.3307 82.4766 12.5443 82.4766 11.6797C82.4766 10.8984 82.3516 10.263 82.1016 9.77344C81.7057 9.0026 81.0234 8.61719 80.0547 8.61719C79.1953 8.61719 78.5703 8.94531 78.1797 9.60156C77.7891 10.2578 77.5938 11.0495 77.5938 11.9766C77.5938 12.8672 77.7891 13.6094 78.1797 14.2031C78.5703 14.7969 79.1901 15.0938 80.0391 15.0938ZM80.0938 7.39062C81.1719 7.39062 82.0833 7.75 82.8281 8.46875C83.5729 9.1875 83.9453 10.2448 83.9453 11.6406C83.9453 12.9896 83.6172 14.1042 82.9609 14.9844C82.3047 15.8646 81.2865 16.3047 79.9062 16.3047C78.7552 16.3047 77.8411 15.9167 77.1641 15.1406C76.487 14.3594 76.1484 13.3125 76.1484 12C76.1484 10.5938 76.5052 9.47396 77.2188 8.64062C77.9323 7.80729 78.8906 7.39062 80.0938 7.39062ZM85.6641 7.63281H87V9.07812C87.1094 8.79688 87.3776 8.45573 87.8047 8.05469C88.2318 7.64844 88.724 7.44531 89.2812 7.44531C89.3073 7.44531 89.3516 7.44792 89.4141 7.45312C89.4766 7.45833 89.5833 7.46875 89.7344 7.48438V8.96875C89.651 8.95312 89.5729 8.94271 89.5 8.9375C89.4323 8.93229 89.3568 8.92969 89.2734 8.92969C88.5651 8.92969 88.0208 9.15885 87.6406 9.61719C87.2604 10.0703 87.0703 10.5938 87.0703 11.1875V16H85.6641V7.63281ZM98.6328 7.39062C99.5755 7.39062 100.341 7.61979 100.93 8.07812C101.523 8.53646 101.88 9.32552 102 10.4453H100.633C100.549 9.92969 100.359 9.5026 100.062 9.16406C99.7656 8.82031 99.2891 8.64844 98.6328 8.64844C97.737 8.64844 97.0964 9.08594 96.7109 9.96094C96.4609 10.5286 96.3359 11.2292 96.3359 12.0625C96.3359 12.901 96.513 13.6068 96.8672 14.1797C97.2214 14.7526 97.7786 15.0391 98.5391 15.0391C99.1224 15.0391 99.5833 14.862 99.9219 14.5078C100.266 14.1484 100.503 13.6589 100.633 13.0391H102C101.844 14.1484 101.453 14.9609 100.828 15.4766C100.203 15.987 99.4036 16.2422 98.4297 16.2422C97.3359 16.2422 96.4635 15.8438 95.8125 15.0469C95.1615 14.2448 94.8359 13.2448 94.8359 12.0469C94.8359 10.5781 95.1927 9.4349 95.9062 8.61719C96.6198 7.79948 97.5286 7.39062 98.6328 7.39062ZM104.484 13.7734C104.484 14.1797 104.633 14.5 104.93 14.7344C105.227 14.9688 105.578 15.0859 105.984 15.0859C106.479 15.0859 106.958 14.9714 107.422 14.7422C108.203 14.362 108.594 13.7396 108.594 12.875V11.7422C108.422 11.8516 108.201 11.9427 107.93 12.0156C107.659 12.0885 107.393 12.1406 107.133 12.1719L106.281 12.2812C105.771 12.349 105.388 12.4557 105.133 12.6016C104.701 12.8464 104.484 13.237 104.484 13.7734ZM107.891 10.9297C108.214 10.888 108.43 10.7526 108.539 10.5234C108.602 10.3984 108.633 10.2188 108.633 9.98438C108.633 9.50521 108.461 9.15885 108.117 8.94531C107.779 8.72656 107.292 8.61719 106.656 8.61719C105.922 8.61719 105.401 8.8151 105.094 9.21094C104.922 9.42969 104.81 9.75521 104.758 10.1875H103.445C103.471 9.15625 103.805 8.4401 104.445 8.03906C105.091 7.63281 105.839 7.42969 106.688 7.42969C107.672 7.42969 108.471 7.61719 109.086 7.99219C109.695 8.36719 110 8.95052 110 9.74219V14.5625C110 14.7083 110.029 14.8255 110.086 14.9141C110.148 15.0026 110.276 15.0469 110.469 15.0469C110.531 15.0469 110.602 15.0443 110.68 15.0391C110.758 15.0286 110.841 15.0156 110.93 15V16.0391C110.711 16.1016 110.544 16.1406 110.43 16.1562C110.315 16.1719 110.159 16.1797 109.961 16.1797C109.477 16.1797 109.125 16.0078 108.906 15.6641C108.792 15.4818 108.711 15.224 108.664 14.8906C108.378 15.2656 107.966 15.5911 107.43 15.8672C106.893 16.1432 106.302 16.2812 105.656 16.2812C104.88 16.2812 104.245 16.0469 103.75 15.5781C103.26 15.1042 103.016 14.513 103.016 13.8047C103.016 13.0286 103.258 12.4271 103.742 12C104.227 11.5729 104.862 11.3099 105.648 11.2109L107.891 10.9297ZM112.352 7.63281H113.688V9.07812C113.797 8.79688 114.065 8.45573 114.492 8.05469C114.919 7.64844 115.411 7.44531 115.969 7.44531C115.995 7.44531 116.039 7.44792 116.102 7.45312C116.164 7.45833 116.271 7.46875 116.422 7.48438V8.96875C116.339 8.95312 116.26 8.94271 116.188 8.9375C116.12 8.93229 116.044 8.92969 115.961 8.92969C115.253 8.92969 114.708 9.15885 114.328 9.61719C113.948 10.0703 113.758 10.5938 113.758 11.1875V16H112.352V7.63281Z" fill="#3D5170"/>
<path fill-rule="evenodd" clip-rule="evenodd" d="M0 10.75C0 4.81299 4.81309 0 10.7502 0C16.6869 0 21.5 4.81299 21.5 10.75C21.5 12.1098 21.2475 13.4106 20.7869 14.6081C19.991 13.3768 18.6061 12.5618 17.0309 12.5618C14.5627 12.5618 12.5618 14.5627 12.5618 17.0309C12.5618 18.6061 13.3768 19.991 14.6081 20.7869C13.4106 21.2475 12.1099 21.5 10.7502 21.5C4.81309 21.5 0 16.687 0 10.75ZM14.6081 20.7869C15.3061 21.2381 16.1379 21.5 17.0309 21.5C19.4991 21.5 21.5 19.4991 21.5 17.0309C21.5 16.1379 21.2381 15.3061 20.7869 14.6081C19.697 17.4417 17.4416 19.697 14.6081 20.7869Z" fill="#0EC261"/>
</g>
<defs>
<clipPath id="clip0_17387_211">
<rect width="117" height="21.5" fill="white"/>
</clipPath>
</defs>
</svg>
